<svg xmlns="http://www.w3.org/2000/svg" viewBox="0 0 100 100" width="100%" height="100%">
  <rect width="100" height="100" fill="#15803D" />
  
  <g fill="#FFFFFF">
    <rect x="20" y="78" width="60" height="4" rx="1" />
    <rect x="36" y="26" width="28" height="52" />
    <rect x="49" y="16" width="2" height="10" />
    <circle cx="50" cy="14" r="1.5" />
    <g fill="#15803D">
      <rect x="40" y="32" width="4" height="6" />
      <rect x="48" y="32" width="4" height="6" />
      <rect x="56" y="32" width="4" height="6" />
      
      <rect x="40" y="42" width="4" height="6" />
      <rect x="48" y="42" width="4" height="6" />
      <rect x="56" y="42" width="4" height="6" />
      
      <rect x="40" y="52" width="4" height="6" />
      <rect x="48" y="52" width="4" height="6" />
      <rect x="56" y="52" width="4" height="6" />
      
      <rect x="40" y="62" width="4" height="6" />
      <rect x="48" y="62" width="4" height="6" />
      <rect x="56" y="62" width="4" height="6" />
      
      <rect x="47" y="72" width="6" height="6" />
    </g>
  </g>
</svg>
